#  
#  Wavefront OBJ generated by GLM library
#  
#  GLM library copyright (C) 1997 by Nate Robins
#  email: ndr@pobox.com
#  www:   http://www.pobox.com/~ndr
#  

mtllib pawn.mtl
usemtl pawn

# 154 vertices
v -276.015991 -519.684692 0.000000
v -276.015991 -428.512207 0.000000
v -229.599991 -474.926910 0.000000
v -211.365997 -206.381989 0.000000
v -195.173004 -519.684692 -195.173004
v -195.173004 -519.684692 195.173004
v -195.173004 -428.512207 -195.173004
v -195.173004 -428.512207 195.173004
v -181.526001 158.309021 0.000000
v -173.876999 368.698975 0.000000
v -173.238998 -208.040985 0.000000
v -164.951004 -516.369385 0.000000
v -162.352005 -474.926910 -162.352005
v -162.352005 -474.926910 162.352005
v -153.987000 282.788025 0.000000
v -152.844986 448.818970 0.000000
v -149.457993 -206.381989 -149.457993
v -149.457993 -206.381989 149.457993
v -145.057007 174.885010 0.000000
v -133.453995 -206.381989 0.000000
v -128.358002 158.309021 -128.358002
v -128.358002 158.309021 128.358002
v -122.949997 368.698975 -122.949997
v -122.949997 368.698975 122.949997
v -122.498001 -208.040985 -122.498001
v -122.498001 -208.040985 122.498001
v -116.637993 -516.369385 -116.637993
v -116.637993 -516.369385 116.637993
v -113.462997 109.835999 0.000000
v -108.885002 282.788025 -108.885002
v -108.885002 282.788025 108.885002
v -108.077003 448.818970 -108.077003
v -108.077003 448.818970 108.077003
v -102.570999 174.885010 -102.570999
v -102.570999 174.885010 102.570999
v -95.326698 203.067017 0.000000
v -94.366501 -206.381989 -94.366501
v -94.366501 -206.381989 94.366501
v -90.226402 218.419006 0.000000
v -89.427193 -72.509003 0.000000
v -88.633301 495.080017 0.000000
v -80.230797 109.835999 -80.230797
v -80.230797 109.835999 80.230797
v -74.657204 39.072998 0.000000
v -67.406303 203.067017 -67.406303
v -67.406303 203.067017 67.406303
v -63.799702 218.419006 -63.799702
v -63.799702 218.419006 63.799702
v -63.234898 -72.509003 -63.234898
v -63.234898 -72.509003 63.234898
v -62.673195 495.080017 -62.673195
v -62.673195 495.080017 62.673195
v -52.790600 39.072998 -52.790600
v -52.790600 39.072998 52.790600
v -5.811110 166.596985 0.000000
v -4.109090 166.596985 -4.109090
v -4.109090 166.596985 4.109090
v 0.000000 -519.684692 -276.015991
v 0.000000 -428.512207 -276.015991
v 0.000000 -474.926910 -229.599991
v 0.000000 -206.381989 -211.365997
v 0.000000 158.309021 -181.526001
v 0.000000 368.698975 -173.876999
v 0.000000 -208.040985 -173.238998
v 0.000000 -516.369385 -164.951004
v 0.000000 282.788025 -153.987000
v 0.000000 448.818970 -152.844986
v 0.000000 174.885010 -145.057007
v 0.000000 -206.381989 -133.453995
v 0.000000 109.835999 -113.462997
v 0.000000 203.067017 -95.326698
v 0.000000 218.419006 -90.226402
v 0.000000 -72.509003 -89.427193
v 0.000000 495.080017 -88.633301
v 0.000000 39.072998 -74.657204
v 0.000000 166.596985 -5.811110
v 0.000000 -523.000000 0.000000
v 0.000000 523.000000 0.000000
v 0.000000 166.596985 5.811110
v 0.000000 39.072998 74.657204
v 0.000000 495.080017 88.633301
v 0.000000 -72.509003 89.427193
v 0.000000 218.419006 90.226402
v 0.000000 203.067017 95.326698
v 0.000000 109.835999 113.462997
v 0.000000 -206.381989 133.453995
v 0.000000 174.885010 145.057007
v 0.000000 448.818970 152.844986
v 0.000000 282.788025 153.987000
v 0.000000 -516.369385 164.951004
v 0.000000 -208.040985 173.238998
v 0.000000 368.698975 173.876999
v 0.000000 158.309021 181.526001
v 0.000000 -206.381989 211.365997
v 0.000000 -474.926910 229.599991
v 0.000000 -519.684692 276.015991
v 0.000000 -428.512207 276.015991
v 4.109090 166.596985 -4.109090
v 4.109090 166.596985 4.109090
v 5.811110 166.596985 0.000000
v 52.790600 39.072998 -52.790600
v 52.790600 39.072998 52.790600
v 62.673195 495.080017 -62.673195
v 62.673195 495.080017 62.673195
v 63.234898 -72.509003 -63.234898
v 63.234898 -72.509003 63.234898
v 63.799702 218.419006 -63.799702
v 63.799702 218.419006 63.799702
v 67.406303 203.067017 -67.406303
v 67.406303 203.067017 67.406303
v 74.657204 39.072998 0.000000
v 80.230797 109.835999 -80.230797
v 80.230797 109.835999 80.230797
v 88.633301 495.080017 0.000000
v 89.427193 -72.509003 0.000000
v 90.226402 218.419006 0.000000
v 94.366501 -206.381989 -94.366501
v 94.366501 -206.381989 94.366501
v 95.326698 203.067017 0.000000
v 102.570999 174.885010 -102.570999
v 102.570999 174.885010 102.570999
v 108.077003 448.818970 -108.077003
v 108.077003 448.818970 108.077003
v 108.885002 282.788025 -108.885002
v 108.885002 282.788025 108.885002
v 113.462997 109.835999 0.000000
v 116.637993 -516.369385 -116.637993
v 116.637993 -516.369385 116.637993
v 122.498001 -208.040985 -122.498001
v 122.498001 -208.040985 122.498001
v 122.949997 368.698975 -122.949997
v 122.949997 368.698975 122.949997
v 128.358002 158.309021 -128.358002
v 128.358002 158.309021 128.358002
v 133.453995 -206.381989 0.000000
v 145.057007 174.885010 0.000000
v 149.457993 -206.381989 -149.457993
v 149.457993 -206.381989 149.457993
v 152.844986 448.818970 0.000000
v 153.987000 282.788025 0.000000
v 162.352005 -474.926910 -162.352005
v 162.352005 -474.926910 162.352005
v 164.951004 -516.369385 0.000000
v 173.238998 -208.040985 0.000000
v 173.876999 368.698975 0.000000
v 181.526001 158.309021 0.000000
v 195.173004 -519.684692 -195.173004
v 195.173004 -519.684692 195.173004
v 195.173004 -428.512207 -195.173004
v 195.173004 -428.512207 195.173004
v 211.365997 -206.381989 0.000000
v 229.599991 -474.926910 0.000000
v 276.015991 -519.684692 0.000000
v 276.015991 -428.512207 0.000000

# 274 normals
vn 0.029837 -0.999546 0.004120
vn -0.667105 0.691821 -0.276323
vn -0.667105 0.691821 0.276322
vn -0.667106 0.691820 0.276323
vn -0.966066 -0.257658 0.018139
vn -0.690966 0.716564 -0.095402
vn -0.678590 -0.678609 -0.281080
vn -0.678590 -0.678609 0.281080
vn -0.678591 -0.678607 0.281080
vn -0.951832 0.277028 -0.131420
vn 0.043464 0.998893 0.018004
vn 0.043464 0.998893 -0.018004
vn 0.043464 0.998893 -0.018003
vn 0.018185 -0.999546 0.024011
vn -0.276323 0.691820 -0.667106
vn -0.667107 0.691820 -0.276323
vn -0.667105 0.691821 -0.276323
vn 0.024011 -0.999546 -0.018185
vn -0.667106 0.691820 0.276323
vn -0.276323 0.691820 0.667107
vn -0.276323 0.691821 0.667105
vn -0.695937 -0.257657 -0.670287
vn -0.670287 -0.257657 0.695937
vn -0.578251 -0.811943 -0.079839
vn -0.407839 0.897290 -0.168933
vn -0.407839 0.897290 0.168931
vn -0.407844 0.897287 0.168936
vn -0.999891 0.014727 -0.000428
vn 0.000905 0.999982 0.005883
vn 0.001838 -0.999995 -0.002473
vn -0.421127 0.716565 -0.556046
vn -0.281080 -0.678607 -0.678591
vn -0.678591 -0.678607 -0.281081
vn -0.678590 -0.678609 -0.281080
vn -0.556046 0.716565 0.421127
vn -0.678591 -0.678607 0.281080
vn -0.281081 -0.678607 0.678591
vn -0.281080 -0.678609 0.678590
vn -0.873160 -0.487142 0.016876
vn -0.819468 0.572560 -0.025447
vn -0.580118 0.277028 -0.765975
vn 0.018003 0.998893 0.043464
vn 0.043464 0.998893 0.018003
vn 0.043464 0.998893 0.018004
vn -0.765975 0.277028 0.580118
vn 0.043464 0.998893 -0.018003
vn 0.018003 0.998893 -0.043464
vn 0.018004 0.998893 -0.043464
vn -0.453735 0.891121 0.005289
vn -0.581524 0.810242 0.073063
vn -0.352430 -0.811942 -0.465342
vn -0.168936 0.897287 -0.407844
vn -0.407846 0.897287 -0.168934
vn -0.407839 0.897290 -0.168933
vn -0.465342 -0.811942 0.352431
vn -0.407844 0.897287 0.168936
vn -0.168934 0.897287 0.407846
vn -0.168933 0.897290 0.407839
vn -0.706726 0.014728 -0.707334
vn -0.707334 0.014728 0.706726
vn -0.003520 0.999982 0.004799
vn 0.004799 0.999982 0.003520
vn 0.003049 -0.999995 -0.000449
vn -0.000449 -0.999995 -0.003049
vn -0.744599 -0.667234 -0.019261
vn -0.629351 -0.487142 -0.605483
vn -0.605483 -0.487142 0.629351
vn -0.561457 0.572559 -0.597447
vn -0.597447 0.572559 0.561457
vn -0.324580 0.891121 -0.317099
vn -0.317099 0.891121 0.324580
vn -0.062140 0.995844 -0.066581
vn -0.462864 0.810242 -0.359533
vn -0.359533 0.810242 0.462864
vn -0.620345 -0.784234 0.012225
vn -0.974804 0.223050 0.002472
vn -0.474745 0.878783 -0.048561
vn -0.512890 -0.667235 -0.540131
vn -0.540131 -0.667235 0.512890
vn -0.982426 -0.186513 -0.007238
vn 0.003141 0.995844 -0.091020
vn -0.091020 0.995844 -0.003141
vn -0.447294 -0.784233 -0.430007
vn -0.430007 -0.784233 0.447294
vn -0.691037 0.223052 -0.687543
vn -0.687543 0.223052 0.691037
vn -0.301361 0.878782 -0.370032
vn -0.370032 0.878782 0.301361
vn -0.689562 -0.186513 -0.699798
vn -0.699798 -0.186513 0.689562
vn 0.376792 0.924836 0.052024
vn -0.511308 -0.832893 -0.211788
vn -0.511307 -0.832892 0.211790
vn -0.511309 -0.832892 0.211788
vn 0.229645 0.924836 0.303219
vn -0.211788 -0.832892 -0.511309
vn -0.511307 -0.832892 -0.211790
vn -0.511308 -0.832893 -0.211788
vn 0.303219 0.924836 -0.229645
vn -0.511309 -0.832892 0.211788
vn -0.211790 -0.832892 0.511307
vn -0.211788 -0.832893 0.511308
vn -0.004120 -0.999546 0.029837
vn 0.276323 0.691821 -0.667105
vn -0.276322 0.691821 -0.667105
vn -0.276323 0.691820 -0.667106
vn -0.018139 -0.257658 -0.966066
vn 0.095402 0.716564 -0.690966
vn 0.281080 -0.678609 -0.678590
vn -0.281080 -0.678609 -0.678590
vn -0.281080 -0.678607 -0.678591
vn 0.131420 0.277028 -0.951832
vn -0.018004 0.998893 0.043464
vn 0.018004 0.998893 0.043464
vn 0.018003 0.998893 0.043464
vn 0.079839 -0.811943 -0.578251
vn 0.168933 0.897290 -0.407839
vn -0.168931 0.897290 -0.407839
vn -0.168936 0.897287 -0.407844
vn 0.000428 0.014727 -0.999891
vn -0.005883 0.999982 0.000905
vn 0.002473 -0.999995 0.001838
vn -0.016876 -0.487142 -0.873160
vn 0.025447 0.572560 -0.819468
vn -0.005289 0.891121 -0.453735
vn -0.073063 0.810242 -0.581524
vn 0.019261 -0.667234 -0.744599
vn 0.066581 0.995844 -0.062140
vn -0.012225 -0.784234 -0.620345
vn -0.002472 0.223050 -0.974804
vn 0.048561 0.878783 -0.474745
vn 0.007238 -0.186513 -0.982426
vn -0.052024 0.924836 0.376792
vn 0.211788 -0.832893 -0.511308
vn -0.211790 -0.832892 -0.511307
vn -0.211788 -0.832892 -0.511309
vn 0.000000 -1.000000 0.000000
vn 0.000000 1.000000 0.000000
vn 0.052024 0.924836 -0.376792
vn -0.211788 -0.832893 0.511308
vn 0.211790 -0.832892 0.511307
vn 0.211788 -0.832892 0.511309
vn -0.007238 -0.186513 0.982426
vn -0.048561 0.878783 0.474745
vn 0.002472 0.223050 0.974804
vn 0.012225 -0.784234 0.620345
vn -0.066581 0.995844 0.062140
vn -0.019261 -0.667234 0.744599
vn 0.073063 0.810242 0.581524
vn 0.005289 0.891121 0.453735
vn -0.025447 0.572560 0.819468
vn 0.016876 -0.487142 0.873160
vn -0.002473 -0.999995 -0.001838
vn 0.005883 0.999982 -0.000905
vn -0.000428 0.014727 0.999891
vn -0.079839 -0.811943 0.578251
vn -0.168933 0.897290 0.407839
vn 0.168931 0.897290 0.407839
vn 0.168936 0.897287 0.407844
vn -0.131420 0.277028 0.951832
vn 0.018004 0.998893 -0.043464
vn -0.018004 0.998893 -0.043464
vn -0.018003 0.998893 -0.043464
vn -0.095402 0.716564 0.690966
vn -0.281080 -0.678609 0.678590
vn 0.281080 -0.678609 0.678590
vn 0.281080 -0.678607 0.678591
vn 0.004120 -0.999546 -0.029837
vn -0.276323 0.691821 0.667105
vn 0.276322 0.691821 0.667105
vn 0.276323 0.691820 0.667106
vn 0.018139 -0.257658 0.966066
vn -0.303219 0.924836 0.229645
vn 0.511309 -0.832892 -0.211788
vn 0.211790 -0.832892 -0.511307
vn 0.211788 -0.832893 -0.511308
vn -0.229645 0.924836 -0.303219
vn 0.211788 -0.832892 0.511309
vn 0.511307 -0.832892 0.211790
vn 0.511308 -0.832893 0.211788
vn -0.376792 0.924836 -0.052024
vn 0.511307 -0.832892 -0.211790
vn 0.511309 -0.832892 -0.211788
vn 0.511308 -0.832893 0.211788
vn 0.699798 -0.186513 -0.689562
vn 0.689562 -0.186513 0.699798
vn 0.370032 0.878782 -0.301361
vn 0.301361 0.878782 0.370032
vn 0.687543 0.223052 -0.691037
vn 0.691037 0.223052 0.687543
vn 0.430007 -0.784233 -0.447294
vn 0.447294 -0.784233 0.430007
vn 0.091020 0.995844 0.003141
vn -0.003141 0.995844 0.091020
vn 0.982426 -0.186513 0.007238
vn 0.540131 -0.667235 -0.512890
vn 0.512890 -0.667235 0.540131
vn 0.474745 0.878783 0.048561
vn 0.974804 0.223050 -0.002472
vn 0.620345 -0.784234 -0.012225
vn 0.359533 0.810242 -0.462864
vn 0.462864 0.810242 0.359533
vn 0.062140 0.995844 0.066581
vn 0.317099 0.891121 -0.324580
vn 0.324580 0.891121 0.317099
vn 0.597447 0.572559 -0.561457
vn 0.561457 0.572559 0.597447
vn 0.605483 -0.487142 -0.629351
vn 0.629351 -0.487142 0.605483
vn 0.744599 -0.667234 0.019261
vn 0.000449 -0.999995 0.003049
vn -0.003049 -0.999995 0.000449
vn -0.004799 0.999982 -0.003520
vn 0.003520 0.999982 -0.004799
vn 0.707334 0.014728 -0.706726
vn 0.706726 0.014728 0.707334
vn 0.465342 -0.811942 -0.352431
vn 0.407844 0.897287 -0.168936
vn 0.168934 0.897287 -0.407846
vn 0.168933 0.897290 -0.407839
vn 0.352430 -0.811942 0.465342
vn 0.168936 0.897287 0.407844
vn 0.407846 0.897287 0.168934
vn 0.407839 0.897290 0.168933
vn 0.581524 0.810242 -0.073063
vn 0.453735 0.891121 -0.005289
vn 0.765975 0.277028 -0.580118
vn -0.043464 0.998893 0.018003
vn -0.018003 0.998893 0.043464
vn -0.018004 0.998893 0.043464
vn 0.580118 0.277028 0.765975
vn -0.018003 0.998893 -0.043464
vn -0.043464 0.998893 -0.018003
vn -0.043464 0.998893 -0.018004
vn 0.819468 0.572560 0.025447
vn 0.873160 -0.487142 -0.016876
vn 0.556046 0.716565 -0.421127
vn 0.678591 -0.678607 -0.281080
vn 0.281081 -0.678607 -0.678591
vn 0.281080 -0.678609 -0.678590
vn 0.421127 0.716565 0.556046
vn 0.281080 -0.678607 0.678591
vn 0.678591 -0.678607 0.281081
vn 0.678590 -0.678609 0.281080
vn -0.001838 -0.999995 0.002473
vn -0.000905 0.999982 -0.005883
vn 0.999891 0.014727 0.000428
vn 0.578251 -0.811943 0.079839
vn 0.407839 0.897290 -0.168931
vn 0.407844 0.897287 -0.168936
vn 0.407839 0.897290 0.168933
vn -0.024011 -0.999546 0.018185
vn 0.667106 0.691820 -0.276323
vn 0.276323 0.691820 -0.667107
vn 0.276323 0.691821 -0.667105
vn -0.018185 -0.999546 -0.024011
vn 0.276323 0.691820 0.667106
vn 0.667107 0.691820 0.276323
vn 0.667105 0.691821 0.276323
vn 0.670287 -0.257657 -0.695937
vn 0.695937 -0.257657 0.670287
vn 0.951832 0.277028 0.131420
vn -0.043464 0.998893 0.018004
vn -0.043464 0.998893 0.018003
vn -0.043464 0.998893 -0.018004
vn 0.690966 0.716564 0.095402
vn 0.678590 -0.678609 -0.281080
vn 0.678591 -0.678607 -0.281080
vn 0.678590 -0.678609 0.281080
vn -0.029837 -0.999546 -0.004120
vn 0.667105 0.691821 -0.276322
vn 0.667106 0.691820 -0.276323
vn 0.667105 0.691821 0.276323
vn 0.966066 -0.257658 -0.018139

# 304 faces (triangles)
f 104//188 114//198 78//138
f 81//144 104//188 78//138
f 52//88 81//144 78//138
f 41//77 52//88 78//138
f 51//87 41//77 78//138
f 74//131 51//87 78//138
f 103//187 74//131 78//138
f 114//198 103//187 78//138
f 123//207 139//235 114//198
f 104//188 123//207 114//198
f 88//151 123//207 104//188
f 81//144 88//151 104//188
f 33//69 88//151 81//144
f 52//88 33//69 81//144
f 16//40 33//69 52//88
f 41//77 16//40 52//88
f 32//68 16//40 41//77
f 51//87 32//68 41//77
f 67//124 32//68 51//87
f 74//131 67//124 51//87
f 122//206 67//124 74//131
f 103//187 122//206 74//131
f 139//235 122//206 103//187
f 114//198 139//235 103//187
f 132//216 145//247 139//235
f 123//207 132//216 139//235
f 92//155 132//216 123//207
f 88//151 92//155 123//207
f 24//60 92//155 88//151
f 33//69 24//60 88//151
f 10//28 24//60 33//69
f 16//40 10//28 33//69
f 23//59 10//28 16//40
f 32//68 23//59 16//40
f 63//120 23//59 32//68
f 67//124 63//120 32//68
f 131//215 63//120 67//124
f 122//206 131//215 67//124
f 145//247 131//215 122//206
f 139//235 145//247 122//206
f 125//209 140//236 145//247
f 132//216 125//209 145//247
f 89//152 125//209 132//216
f 92//155 89//152 132//216
f 31//67 89//152 92//155
f 24//60 31//67 92//155
f 15//39 31//67 24//60
f 10//28 15//39 24//60
f 30//66 15//39 10//28
f 23//59 30//66 10//28
f 66//123 30//66 23//59
f 63//120 66//123 23//59
f 124//208 66//123 63//120
f 131//215 124//208 63//120
f 140//236 124//208 131//215
f 145//247 140//236 131//215
f 108//192 116//200 140//236
f 125//209 108//192 140//236
f 83//146 108//192 125//209
f 89//152 83//146 125//209
f 48//84 83//146 89//152
f 31//67 48//84 89//152
f 39//75 48//84 31//67
f 15//39 39//75 31//67
f 47//83 39//75 15//39
f 30//66 47//83 15//39
f 72//129 47//83 30//66
f 66//123 72//129 30//66
f 107//191 72//129 66//123
f 124//208 107//191 66//123
f 116//200 107//191 124//208
f 140//236 116//200 124//208
f 99//180 100//184 116//200
f 108//192 99//179 116//200
f 79//142 99//178 108//192
f 83//146 79//141 108//192
f 57//102 79//140 83//146
f 48//84 57//101 83//146
f 55//94 57//100 48//84
f 39//75 55//93 48//84
f 56//98 55//92 39//75
f 47//83 56//97 39//75
f 76//136 56//96 47//83
f 72//129 76//135 47//83
f 98//176 76//134 72//129
f 107//191 98//175 72//129
f 100//183 98//174 107//191
f 116//200 100//182 107//191
f 110//194 119//203 100//181
f 99//177 110//194 100//181
f 84//147 110//194 99//177
f 79//139 84//147 99//177
f 46//82 84//147 79//139
f 57//99 46//82 79//139
f 36//72 46//82 57//99
f 55//91 36//72 57//99
f 45//81 36//72 55//91
f 56//95 45//81 55//91
f 71//128 45//81 56//95
f 76//133 71//128 56//95
f 109//193 71//128 76//133
f 98//173 109//193 76//133
f 119//203 109//193 98//173
f 100//181 119//203 98//173
f 121//205 136//226 119//203
f 110//194 121//205 119//203
f 87//150 121//205 110//194
f 84//147 87//150 110//194
f 35//71 87//150 84//147
f 46//82 35//71 84//147
f 19//49 35//71 46//82
f 36//72 19//49 46//82
f 34//70 19//49 36//72
f 45//81 34//70 36//72
f 68//125 34//70 45//81
f 71//128 68//125 45//81
f 120//204 68//125 71//128
f 109//193 120//204 71//128
f 136//226 120//204 109//193
f 119//203 136//226 109//193
f 134//224 146//251 136//226
f 121//205 134//223 136//226
f 93//159 134//222 121//205
f 87//150 93//158 121//205
f 22//58 93//157 87//150
f 35//71 22//57 87//150
f 9//27 22//56 35//71
f 19//49 9//26 35//71
f 21//54 9//25 19//49
f 34//70 21//53 19//49
f 62//119 21//52 34//70
f 68//125 62//118 34//70
f 133//220 62//117 68//125
f 120//204 133//219 68//125
f 146//250 133//218 120//204
f 136//226 146//249 120//204
f 113//197 126//210 146//248
f 134//221 113//197 146//248
f 85//148 113//197 134//221
f 93//156 85//148 134//221
f 43//79 85//148 93//156
f 22//55 43//79 93//156
f 29//65 43//79 22//55
f 9//24 29//65 22//55
f 42//78 29//65 9//24
f 21//51 42//78 9//24
f 70//127 42//78 21//51
f 62//116 70//127 21//51
f 112//196 70//127 62//116
f 133//217 112//196 62//116
f 126//210 112//196 133//217
f 146//248 126//210 133//217
f 102//186 111//195 126//210
f 113//197 102//186 126//210
f 80//143 102//186 113//197
f 85//148 80//143 113//197
f 54//90 80//143 85//148
f 43//79 54//90 85//148
f 44//80 54//90 43//79
f 29//65 44//80 43//79
f 53//89 44//80 29//65
f 42//78 53//89 29//65
f 75//132 53//89 42//78
f 70//127 75//132 42//78
f 101//185 75//132 70//127
f 112//196 101//185 70//127
f 111//195 101//185 112//196
f 126//210 111//195 112//196
f 106//190 115//199 111//195
f 102//186 106//190 111//195
f 82//145 106//190 102//186
f 80//143 82//145 102//186
f 50//86 82//145 80//143
f 54//90 50//86 80//143
f 40//76 50//86 54//90
f 44//80 40//76 54//90
f 49//85 40//76 44//80
f 53//89 49//85 44//80
f 73//130 49//85 53//89
f 75//132 73//130 53//89
f 105//189 73//130 75//132
f 101//185 105//189 75//132
f 115//199 105//189 101//185
f 111//195 115//199 101//185
f 118//202 135//225 115//199
f 106//190 118//202 115//199
f 86//149 118//202 106//190
f 82//145 86//149 106//190
f 38//74 86//149 82//145
f 50//86 38//74 82//145
f 20//50 38//74 50//86
f 40//76 20//50 50//86
f 37//73 20//50 40//76
f 49//85 37//73 40//76
f 69//126 37//73 49//85
f 73//130 69//126 49//85
f 117//201 69//126 73//130
f 105//189 117//201 73//130
f 135//225 117//201 105//189
f 115//199 135//225 105//189
f 130//214 144//246 135//225
f 118//202 130//214 135//225
f 91//154 130//214 118//202
f 86//149 91//154 118//202
f 26//62 91//154 86//149
f 38//74 26//62 86//149
f 11//29 26//62 38//74
f 20//50 11//29 38//74
f 25//61 11//29 20//50
f 37//73 25//61 20//50
f 64//121 25//61 37//73
f 69//126 64//121 37//73
f 129//213 64//121 69//126
f 117//201 129//213 69//126
f 144//246 129//213 117//201
f 135//225 144//246 117//201
f 138//234 151//265 144//246
f 130//214 138//233 144//246
f 94//163 138//232 130//214
f 91//154 94//162 130//214
f 18//48 94//161 91//154
f 26//62 18//47 91//154
f 4//13 18//46 26//62
f 11//29 4//12 26//62
f 17//44 4//11 11//29
f 25//61 17//43 11//29
f 61//115 17//42 25//61
f 64//121 61//114 25//61
f 137//230 61//113 64//121
f 129//213 137//229 64//121
f 151//264 137//228 129//213
f 144//246 151//263 129//213
f 150//261 154//274 151//262
f 138//231 150//261 151//262
f 97//172 150//261 138//231
f 94//160 97//172 138//231
f 8//23 97//172 94//160
f 18//45 8//23 94//160
f 2//5 8//23 18//45
f 4//10 2//5 18//45
f 7//22 2//5 4//10
f 17//41 7//22 4//10
f 59//107 7//22 17//41
f 61//112 59//107 17//41
f 149//260 59//107 61//112
f 137//227 149//260 61//112
f 154//274 149//260 137//227
f 151//262 154//274 137//227
f 142//244 152//269 154//274
f 150//261 142//243 154//274
f 95//167 142//242 150//261
f 97//172 95//166 150//261
f 14//38 95//165 97//172
f 8//23 14//37 97//172
f 3//9 14//36 8//23
f 2//5 3//8 8//23
f 13//34 3//7 2//5
f 7//22 13//33 2//5
f 60//111 13//32 7//22
f 59//107 60//110 7//22
f 141//240 60//109 59//107
f 149//260 141//239 59//107
f 152//268 141//238 149//260
f 154//274 152//267 149//260
f 148//259 153//273 152//266
f 142//241 148//258 152//266
f 96//171 148//257 142//241
f 95//164 96//170 142//241
f 6//21 96//169 95//164
f 14//35 6//20 95//164
f 1//4 6//19 14//35
f 3//6 1//3 14//35
f 5//17 1//2 3//6
f 13//31 5//16 3//6
f 58//106 5//15 13//31
f 60//108 58//105 13//31
f 147//255 58//104 60//108
f 141//237 147//254 60//108
f 153//272 147//253 141//237
f 152//266 153//271 141//237
f 128//212 143//245 153//270
f 148//256 128//212 153//270
f 90//153 128//212 148//256
f 96//168 90//153 148//256
f 28//64 90//153 96//168
f 6//18 28//64 96//168
f 12//30 28//64 6//18
f 1//1 12//30 6//18
f 27//63 12//30 1//1
f 5//14 27//63 1//1
f 65//122 27//63 5//14
f 58//103 65//122 5//14
f 127//211 65//122 58//103
f 147//252 127//211 58//103
f 143//245 127//211 147//252
f 153//270 143//245 147//252
f 128//212 77//137 143//245
f 90//153 77//137 128//212
f 28//64 77//137 90//153
f 12//30 77//137 28//64
f 27//63 77//137 12//30
f 65//122 77//137 27//63
f 127//211 77//137 65//122
f 143//245 77//137 127//211
